<svg width="68" height="67" viewBox="0 0 68 67" fill="none" xmlns="http://www.w3.org/2000/svg">
<g clip-path="url(#clip0_242_721)">
<path d="M31.6332 51.2932C31.9198 50.7868 32.9995 49.0332 33.5965 47.8659C34.9909 45.1542 36.4542 42.4751 38.5333 40.1461C38.8609 39.7768 39.2586 39.0789 41.238 40.1727C43.2995 41.3141 44.2423 42.4427 43.7749 43.1221C42.6299 44.7866 41.1897 46.2981 40.5934 48.2518C39.7217 51.1023 38.0485 53.5132 36.7656 56.1398C36.2622 57.1712 35.7182 58.1716 35.1742 59.1721L34.8391 59.7747C34.7046 60.0002 34.5777 60.219 34.4366 60.4369C34.1544 60.8728 33.8458 61.2786 33.5049 61.6329C32.8289 62.3631 32.0082 62.9142 31.0811 63.2391C30.5325 63.4033 29.964 63.545 29.3835 63.5373C28.3263 63.5636 27.2799 63.3001 26.29 62.8134C25.3133 62.3417 24.3493 61.552 23.568 60.7878C23.2865 60.5294 22.9944 60.2137 22.7808 60.002L22.1354 59.3313C21.7101 58.8797 21.3139 58.4158 20.9336 57.9245C19.628 56.2492 18.762 54.2258 17.6054 52.4322C17.3345 52.0045 16.6318 51.7978 16.3127 51.3458C16.0524 50.9753 15.5945 50.3658 15.4748 49.8979C15.4165 49.6959 15.3808 49.474 15.1959 49.3704C14.352 48.9282 14.8484 48.2365 17.0597 46.858C17.539 46.5548 18.0815 46.0359 18.5186 45.9569C18.5402 45.9511 18.5759 45.9463 18.5975 45.9406C20.221 45.4677 20.0616 46.4355 20.4984 46.9303C22.6568 49.3601 24.6886 51.8882 26.7796 54.3776L27.7207 55.5343C28.0432 55.9299 28.3318 56.3021 28.5321 56.4988C28.6662 56.6205 28.8727 56.7183 29.016 56.5784C29.1126 56.5065 29.0931 56.1369 29.154 56.2965L29.1597 56.3182C29.1809 56.2061 29.1059 56.0456 29.1059 56.0456L29.1133 56.039L29.1142 56.0249C29.13 55.9976 29.0749 56.0862 29.171 55.908L29.9218 54.4315C30.4292 53.45 30.9566 52.4909 31.5417 51.6275C31.6175 51.5472 31.5772 51.396 31.6332 51.2932Z" fill="#E94F55"/>
<path d="M26.8011 18.5164C27.0655 17.6827 28.4162 14.8763 29.2436 13.0787C31.2027 8.92139 33.7996 4.98802 37.2697 1.93791C37.8095 1.4614 38.5965 0.539777 40.2656 2.06768C42.0016 3.65644 42.5688 5.12994 41.7971 5.91791C41.3346 6.40631 40.8248 6.85635 40.3613 7.35887L39.0051 8.88971C38.0848 9.90223 37.3948 11.085 36.85 12.3263C35.3733 16.0177 33.4814 19.4353 32.325 23.2174C31.3353 26.599 30.4492 30.0224 30.0611 33.5264C29.8057 36.8333 30.0959 40.1387 30.241 43.3854C30.2595 44.7964 30.3136 46.2027 30.239 47.6291C30.3073 49.0362 30.2733 50.4935 30.4761 51.9018C30.5835 52.5674 31.1707 53.2628 31.2962 53.9791C31.3788 54.5864 31.6878 55.5408 31.6624 56.1769C31.6599 56.4459 31.6348 56.7349 31.791 56.9572C32.4943 57.9503 31.8139 58.5243 29.2495 58.974C28.6837 59.0734 28.0107 59.4141 27.5537 59.2439C27.533 59.2355 27.4981 59.2263 27.4773 59.2179C25.7107 58.8034 26.11 57.6238 25.7918 56.7042C24.3434 52.0869 23.624 47.2529 23.4428 42.424C23.4179 41.6856 23.3722 40.9389 23.3972 40.1965L23.4721 37.9694C23.4655 36.4812 23.6349 35.0111 23.6151 33.5079C23.5955 32.6848 23.4073 31.8371 23.7472 31.0435L23.7463 31.0577C23.814 30.1975 23.7988 29.3039 23.9578 28.4566C24.6878 25.2643 25.3596 21.87 26.7072 18.9995C26.7782 18.8835 26.7407 18.6898 26.8011 18.5164Z" fill="#E94F55"/>
</g>
<defs>
<clipPath id="clip0_242_721">
<rect width="52" height="43" fill="white" transform="translate(0.279663 34.5896) rotate(-41.4388)"/>
</clipPath>
</defs>
</svg>
