<svg width="223" height="104" viewBox="0 0 223 104" fill="none" xmlns="http://www.w3.org/2000/svg">
<g clip-path="url(#clip0_110_885)">
<path d="M116.345 96.2773C123.754 95.5196 131.133 94.4891 138.447 93.1756C145.356 91.9227 152.254 90.5184 159.025 88.6897L161.572 88.0329L164.1 87.3055C165.785 86.8104 167.468 86.3456 169.143 85.8303C172.469 84.7493 175.838 83.7289 179.101 82.5366C185.636 80.2027 191.917 77.4646 197.524 73.9183C200.329 72.1502 202.909 70.1497 205.244 67.937C207.558 65.7446 209.573 63.3197 211.204 60.6423C211.524 60.0967 211.823 59.5309 212.089 58.9651L212.825 57.2273L212.761 57.3183C215.981 50.6197 216.737 42.9411 213.752 36.4949C210.841 29.9782 204.53 25.0073 197.333 21.5418C193.132 19.5515 188.654 17.9348 184.026 16.6416C179.378 15.3989 174.569 14.2572 169.782 13.3277C160.176 11.4484 150.42 10.2562 140.632 9.74093C121.036 8.71037 101.29 10.3876 82.173 14.6714C80.6696 14.9644 78.9318 15.4393 77.1512 15.8637C75.3707 16.3082 73.5263 16.6719 71.895 17.0559C68.611 17.7631 65.9668 17.9854 65.6682 16.874C65.0285 14.6411 71.3404 10.8826 82.1303 8.41737C88.6341 6.88164 95.2552 5.83087 101.876 4.94177C105.203 4.58815 108.519 4.14359 111.867 3.95163C113.541 3.84049 115.204 3.67884 116.878 3.598L121.889 3.38583C123.563 3.2949 125.226 3.2949 126.9 3.2848C128.574 3.2848 130.237 3.23428 131.911 3.25448C135.248 3.36562 138.586 3.35552 141.923 3.5879C148.587 3.87079 155.208 4.60835 161.807 5.39643L169.014 6.4876L176.169 7.85157L183.27 9.48834C185.636 10.0743 188.015 10.7412 190.36 11.499C195.041 13.0246 199.678 14.8432 204.039 17.3186C205.127 17.945 206.214 18.5612 207.259 19.2786C208.325 19.9454 209.339 20.7032 210.34 21.4812C211.364 22.2288 212.27 23.1281 213.241 23.9465L214.574 25.3104C215.032 25.7549 215.458 26.2298 215.852 26.735C219.158 30.635 221.578 35.3432 222.431 40.3747C223.348 45.3861 222.793 50.4884 221.322 55.2167C220.555 57.5709 219.585 59.8542 218.412 62.0467C217.207 64.219 215.831 66.2902 214.296 68.2502C211.151 72.1603 207.377 75.4642 203.293 78.283C195.947 83.3651 187.705 86.77 179.517 89.6394C171.307 92.4482 162.97 94.8831 154.504 96.8835C137.583 100.905 120.204 103.107 102.783 103.774C86.3952 104.289 70.0078 103.501 53.7163 100.996C49.6221 100.309 45.5492 99.4802 41.5084 98.4092C37.4781 97.3079 33.4797 96.0045 29.5774 94.388C25.6965 92.7209 21.9114 90.7608 18.3503 88.3966C14.7998 86.0021 11.548 83.1226 8.74387 79.8389L7.00609 77.6566C6.46232 76.909 5.98261 76.1007 5.48149 75.3227L4.73521 74.1507C4.50064 73.7567 4.30863 73.3323 4.09539 72.9181L2.86937 70.4326C1.38735 67.0278 0.502354 63.4006 0.150509 59.7532C-0.190675 56.1059 0.0650145 52.4484 0.74738 48.9122C1.45108 45.376 2.61337 41.961 4.09539 38.7076C7.10206 32.2212 11.4202 26.3915 16.6232 21.4509C19.2247 18.9755 22.05 16.7124 25.0888 14.722C26.6027 13.7217 28.1703 12.7922 29.7908 11.9333C31.4115 11.1049 33.0213 10.337 34.6632 9.57928C40.8898 6.83112 46.0787 4.47873 53.8867 2.75941C58.0901 1.83384 60.651 1.72271 64.7984 1.1064C68.9352 0.44967 73.2617 0.650107 78.0042 0.465921C80.6057 0.364886 83.2606 0.415403 85.7662 0.253747C97.2917 -0.413083 100.309 0.455817 96.5134 3.09283C95.6817 3.67884 96.6733 4.41638 93.9012 4.85084C93.8905 4.85084 93.688 4.81042 93.688 4.81042L93.7731 4.85084C89.9135 5.80057 85.6276 6.12388 81.2242 6.32595C76.8314 6.53812 72.3321 6.64926 68.0993 7.10392C57.7251 8.23551 47.5109 10.4078 38.2244 14.4895C37.0409 14.9644 35.9321 15.5404 34.7913 16.1062C33.6397 16.6517 32.5522 17.2479 31.486 17.8641C29.3536 19.1069 27.3172 20.5315 25.3873 22.0672C21.5277 25.1488 18.1051 28.7254 15.2585 32.6657C9.59693 40.5162 6.20635 50.0135 7.18725 59.238C7.43248 61.5314 7.93378 63.7845 8.71211 65.9568L9.35166 67.5632C9.58623 68.0886 9.87408 68.6039 10.13 69.1293L10.9083 70.6953C11.2068 71.2005 11.5375 71.6854 11.8573 72.1704C14.3842 76.1108 17.8386 79.5258 21.8368 82.3345C26.72 85.8405 32.4454 88.3764 38.3521 90.3971C44.2802 92.4178 50.5069 93.7818 56.7974 94.7719C69.4959 96.7219 82.429 97.5403 95.2766 97.419C102.324 97.2574 109.34 96.6815 116.462 96.247L116.345 96.2773Z" fill="#FD5C63"/>
</g>
<defs>
<clipPath id="clip0_110_885">
<rect width="223" height="104" fill="white"/>
</clipPath>
</defs>
</svg>
