<svg width="320" height="291" viewBox="0 0 320 291" fill="none" xmlns="http://www.w3.org/2000/svg">
<g clip-path="url(#clip0_60_153)">
<path opacity="0.18" d="M274.498 266.081C270.702 268.845 266.437 271.364 261.989 274.082C245.012 284.518 225.22 285.648 206.535 286.503L117.059 290.626C101.987 291.313 86.3521 291.886 72.4761 284.778C64.4741 280.562 57.3901 274.168 51.7791 266.097C42.8005 253.469 36.8274 237.185 33.8155 220.825C28.8928 194.058 30.4557 166.285 30.0824 138.877C29.8672 122.914 28.9877 106.813 31.2593 91.0782C33.5308 75.3437 39.3963 59.6627 50.0833 50.2418C64.4529 37.584 83.2707 38.8284 100.07 36.164C117.787 33.3546 132.973 22.9183 148.759 13.4899C165.299 3.62625 184.136 -1.65675 202.612 0.457973C221.291 2.61087 234.831 12.8715 245.297 31.7055C252.516 44.7023 256.905 59.6839 258.059 75.2674C259.407 93.5899 256.231 112.203 258.483 130.411C262.912 166.086 287.362 195.066 290.076 230.994C291.5 249.751 284.603 258.745 274.498 266.081Z" fill="#455593"/>
<path opacity="0.41" d="M274.498 266.081C270.701 268.845 266.437 271.364 261.989 274.082C245.012 284.518 225.22 285.648 206.535 286.503L117.059 290.626C101.987 291.313 86.3521 291.886 72.476 284.778C64.4741 280.562 57.39 274.168 51.7791 266.097L274.498 266.081Z" fill="#455593"/>
<path d="M156.618 59.4872C156.504 62.9379 156.896 66.3581 157.023 69.8318C157.121 71.1164 157.015 72.4117 156.713 73.649C156.004 76.0309 154.081 77.5196 152.284 78.8327C151.145 79.6649 149.848 80.8558 150.006 82.459C150.115 83.0634 150.384 83.6087 150.772 84.0133C151.16 84.4179 151.646 84.6601 152.157 84.7036C153.183 84.7587 154.204 84.518 155.137 84.0012C157.047 83.2519 158.796 82.0062 160.263 80.352C163.129 76.7562 163.224 71.1907 163.009 66.2054C162.825 62.0218 162.528 57.4259 160.769 53.7003C157.934 47.7455 156.719 56.5021 156.618 59.4872Z" fill="#455593"/>
<path d="M156.618 59.4872C156.504 62.9379 156.896 66.3581 157.023 69.8318C157.121 71.1164 157.015 72.4117 156.713 73.649C156.004 76.0309 154.081 77.5196 152.284 78.8327C151.145 79.6649 149.848 80.8558 150.006 82.459C150.115 83.0634 150.384 83.6087 150.772 84.0133C151.16 84.4179 151.646 84.6601 152.157 84.7036C153.183 84.7587 154.204 84.518 155.137 84.0012C157.047 83.2519 158.796 82.0062 160.263 80.352C163.129 76.7562 163.224 71.1907 163.009 66.2054C162.825 62.0218 162.528 57.4259 160.769 53.7003C157.934 47.7455 156.719 56.5021 156.618 59.4872Z" fill="url(#paint0_linear_60_153)"/>
<path d="M148.165 80.1763C146.855 79.6267 145.463 78.8785 144.153 79.4129C144.028 79.4467 143.911 79.5164 143.813 79.616C143.715 79.7157 143.639 79.8425 143.59 79.9855C143.562 80.1954 143.587 80.4104 143.66 80.6039L145.178 86.0319C145.247 86.3021 145.347 86.5592 145.475 86.7954C145.777 87.21 146.184 87.492 146.633 87.597C148.282 88.1466 150.033 88.0477 151.632 87.3145C153.29 86.5511 153.435 84.0928 152.556 82.3674C151.676 80.642 149.683 80.81 148.165 80.1763Z" fill="url(#paint1_linear_60_153)"/>
<path d="M145.077 70.3661C145.507 70.4959 145.343 70.8013 145.387 71.3281C145.684 74.6719 145.431 78.4357 146.02 81.7109C146.608 84.986 148.418 87.8871 148.753 91.2309C147.418 87.9329 146.222 84.8028 145.545 81.1841C145.425 80.2909 144.425 70.3661 145.077 70.3661Z" fill="#3E3E54"/>
<path d="M156.51 101.705C156.51 101.705 143.944 119.814 152.322 135.335C160.699 150.856 175.562 162.399 181.219 174.14C186.876 185.882 176.613 198.616 173.05 200.998C169.488 203.38 137.035 232.246 157.137 261.89H224.986C224.986 261.89 246.974 235.032 210.325 202.594C210.325 202.594 184.149 186.478 208.648 163.59C233.148 140.702 237.546 118.913 225.929 101.904L156.51 101.705Z" fill="#455593"/>
<path d="M156.51 101.705C156.51 101.705 143.944 119.814 152.322 135.335C160.699 150.856 175.562 162.399 181.219 174.14C186.876 185.882 176.613 198.616 173.05 200.998C169.488 203.38 137.035 232.246 157.137 261.89H224.986C224.986 261.89 246.974 235.032 210.325 202.594C210.325 202.594 184.149 186.478 208.648 163.59C233.148 140.702 237.546 118.913 225.929 101.904L156.51 101.705Z" fill="url(#paint2_linear_60_153)"/>
<path d="M229.776 94.2923H151.24C149.464 94.2923 148.025 96.0287 148.025 98.1706V98.1782C148.025 100.32 149.464 102.056 151.24 102.056H229.776C231.551 102.056 232.99 100.32 232.99 98.1782V98.1706C232.99 96.0287 231.551 94.2923 229.776 94.2923Z" fill="#455593"/>
<path d="M229.776 262.195H151.24C149.464 262.195 148.025 263.932 148.025 266.074V266.081C148.025 268.223 149.464 269.96 151.24 269.96H229.776C231.551 269.96 232.99 268.223 232.99 266.081V266.074C232.99 263.932 231.551 262.195 229.776 262.195Z" fill="#455593"/>
<path d="M229.776 94.2923H151.24C149.464 94.2923 148.025 96.0287 148.025 98.1706V98.1782C148.025 100.32 149.464 102.056 151.24 102.056H229.776C231.551 102.056 232.99 100.32 232.99 98.1782V98.1706C232.99 96.0287 231.551 94.2923 229.776 94.2923Z" fill="url(#paint3_linear_60_153)"/>
<path d="M229.776 262.195H151.24C149.464 262.195 148.025 263.932 148.025 266.074V266.081C148.025 268.223 149.464 269.96 151.24 269.96H229.776C231.551 269.96 232.99 268.223 232.99 266.081V266.074C232.99 263.932 231.551 262.195 229.776 262.195Z" fill="url(#paint4_linear_60_153)"/>
<path d="M219.259 220.657C207.762 213.251 169.722 212.022 162.502 218.366C169.241 207.602 178.498 201.265 178.498 201.265C187.61 194.394 197.974 200.365 197.974 200.365C197.974 200.365 211.154 208.503 219.259 220.657Z" fill="url(#paint5_linear_60_153)"/>
<path d="M219.019 261.295H162.161L159.965 258.913C153.473 245.507 155.068 233.666 159.333 224.245C160.267 222.208 161.325 220.256 162.496 218.405C169.716 212.022 207.756 213.251 219.253 220.695C220.43 222.447 221.488 224.311 222.417 226.268C223.031 227.561 223.568 228.906 224.024 230.291C229.693 247.568 219.019 261.295 219.019 261.295Z" fill="#455593"/>
<path d="M222.436 226.23C219.721 238.155 192.653 219.962 180.042 218.595C171.715 217.702 162.92 223.817 162.92 223.817C162.92 223.817 160.079 225.062 159.32 224.23C160.255 222.192 161.312 220.24 162.484 218.389C169.703 212.007 207.744 213.236 219.24 220.68C220.427 222.423 221.496 224.279 222.436 226.23Z" fill="url(#paint6_linear_60_153)"/>
<path d="M162.37 145.084C162.37 145.084 181.845 163.59 183.105 167.17C184.364 170.751 194.494 172.843 197.658 169.659C200.821 166.475 208.857 160.406 216.817 146.672C224.777 132.938 198.6 141.9 189.805 143.893C181.01 145.886 165.932 132.945 162.37 145.084Z" fill="#455593"/>
<path d="M162.37 145.084C162.37 145.084 169.912 151.054 176.613 149.26C183.313 147.466 187.711 142.297 196.924 143.29C206.136 144.282 215.349 149.061 218.285 143.893C221.221 138.724 218.076 134.533 208.857 135.93C199.638 137.327 184.357 137.518 177.03 136.923C169.703 136.327 156.302 137.724 162.37 145.084Z" fill="#455593"/>
<path d="M162.37 145.084C162.37 145.084 169.912 151.054 176.613 149.26C183.313 147.466 187.711 142.297 196.924 143.29C206.136 144.282 215.349 149.061 218.285 143.893C221.221 138.724 218.076 134.533 208.857 135.93C199.638 137.327 184.357 137.518 177.03 136.923C169.703 136.327 156.302 137.724 162.37 145.084Z" fill="url(#paint7_linear_60_153)"/>
<path d="M189.603 175.866C189.067 176.29 188.632 176.874 188.337 177.561C188.231 177.772 188.163 178.007 188.137 178.251C188.111 178.496 188.127 178.744 188.185 178.981C188.275 179.24 188.427 179.46 188.623 179.613C188.818 179.766 189.047 179.843 189.28 179.836C189.677 179.79 190.055 179.607 190.368 179.309C191.001 178.813 191.697 178.179 191.602 177.408C191.507 176.637 190.52 176.087 189.672 175.782" fill="#455593"/>
<path d="M193.134 182.928C192.92 182.993 192.72 183.11 192.545 183.271C192.456 183.363 192.406 183.462 192.475 183.561C192.619 183.691 192.797 183.753 192.975 183.737C193.145 183.724 193.313 183.689 193.475 183.63C193.766 183.523 194.108 183.393 194.038 183.241C193.969 183.088 193.545 182.973 193.159 182.912" fill="#455593"/>
<path d="M189.729 185.164C189.516 185.23 189.316 185.347 189.141 185.508C189.052 185.6 189.008 185.707 189.071 185.798C189.215 185.928 189.392 185.99 189.571 185.974C189.741 185.965 189.909 185.929 190.071 185.867C190.362 185.768 190.704 185.638 190.64 185.477C190.577 185.317 190.141 185.21 189.755 185.149" fill="#455593"/>
<path d="M195.139 195.585C194.865 195.444 194.571 195.369 194.273 195.364C194.108 195.364 193.963 195.41 193.925 195.555C193.928 195.675 193.956 195.792 194.004 195.897C194.052 196.001 194.121 196.091 194.203 196.158C194.368 196.309 194.552 196.427 194.747 196.509C195.108 196.677 195.513 196.845 195.633 196.669C195.753 196.494 195.456 195.99 195.171 195.585" fill="#455593"/>
<path d="M185.091 209.159C184.819 209.019 184.527 208.944 184.231 208.938C184.06 208.938 183.915 208.991 183.883 209.129C183.851 209.266 183.946 209.526 184.155 209.732C184.321 209.885 184.507 210.003 184.705 210.083C185.06 210.251 185.471 210.419 185.585 210.243C185.699 210.068 185.408 209.564 185.129 209.159" fill="#455593"/>
<path d="M158.01 54.7233C157.914 52.6934 158.357 50.6795 159.275 48.9746C160.193 47.2842 161.421 45.871 162.863 44.8444C163.651 44.1589 164.607 43.8145 165.578 43.8672C166.381 43.9894 169.165 40.3401 169.817 40.9203C171.652 42.5617 171.285 48.6311 172.841 50.6542C173.25 53.3682 173.503 56.1129 173.601 58.8688L174.531 79.6801C174.683 83.1232 174.759 86.8717 173.05 89.6048C168.748 87.7189 164.561 85.4688 160.522 82.8713C160.056 82.6706 159.663 82.2802 159.41 81.7674C159.157 81.2546 159.06 80.6515 159.136 80.0618C158.965 74.8857 158.965 69.6943 159.136 64.5182C159.212 61.7393 158.2 57.5022 158.01 54.7233Z" fill="#455593"/>
<path d="M158.01 54.7233C157.914 52.6934 158.357 50.6795 159.275 48.9746C160.193 47.2842 161.421 45.871 162.863 44.8444C163.651 44.1589 164.607 43.8145 165.578 43.8672C166.381 43.9894 169.165 40.3401 169.817 40.9203C171.652 42.5617 171.285 48.6311 172.841 50.6542C173.25 53.3682 173.503 56.1129 173.601 58.8688L174.531 79.6801C174.683 83.1232 174.759 86.8717 173.05 89.6048C168.748 87.7189 164.561 85.4688 160.522 82.8713C160.056 82.6706 159.663 82.2802 159.41 81.7674C159.157 81.2546 159.06 80.6515 159.136 80.0618C158.965 74.8857 158.965 69.6943 159.136 64.5182C159.212 61.7393 158.2 57.5022 158.01 54.7233Z" fill="url(#paint8_linear_60_153)"/>
<path d="M154.555 39.0957V39.6912C154.538 40.4391 154.708 41.1758 155.042 41.8059C155.675 42.7526 156.827 42.7908 157.808 42.6152C158.572 42.381 159.365 42.3163 160.149 42.4243C160.927 42.6304 161.787 46.4782 162.534 46.6309C163.895 46.9133 166.78 44.8978 167.716 43.8825C167.811 43.7832 166.723 40.8287 166.761 40.6684C166.792 40.5129 166.792 40.3505 166.761 40.1951L165.242 31.6751C165.101 30.4626 164.736 29.304 164.173 28.2854C163.725 27.6267 163.155 27.1038 162.509 26.7585C160.364 25.5752 157.219 25.9951 155.65 28.3465C154.821 29.5909 154.834 31.7514 154.701 33.2783C154.531 35.2103 154.483 37.1549 154.555 39.0957Z" fill="url(#paint9_linear_60_153)"/>
<path d="M165.742 98.6821C161.553 101.942 156.77 103.866 152.043 105.752C150.879 106.217 149.512 106.66 148.481 105.912C147.898 105.418 147.437 104.742 147.146 103.957C145.286 99.6975 140.635 98.4302 142.919 94.4832C143.887 92.8036 149.373 87.2992 150.727 86.0854C153.41 83.6805 156.219 81.207 159.516 80.5428C161.064 80.2718 162.637 80.2718 164.186 80.5428C167.178 80.978 174.727 82.3674 174.094 87.0015C173.462 91.6356 168.773 96.3002 165.742 98.6821Z" fill="#3E3E54"/>
<path d="M167.007 58.174C167.007 61.2278 167.273 64.2816 166.438 67.1521C165.318 70.9693 162.395 73.5879 159.478 75.6492C157.675 76.9317 155.719 78.2219 154.751 80.4512C153.783 82.6804 154.467 86.1312 156.523 86.5587C157.322 86.6574 158.128 86.5157 158.87 86.1464C162.852 84.5586 166.697 82.5134 170.355 80.0389C171.854 79.0159 173.373 77.8631 174.297 76.1149C175.098 74.3448 175.532 72.3672 175.562 70.3509C175.862 66.0242 175.756 61.6704 175.246 57.3724C174.656 53.9872 173.558 50.7606 172.006 47.8524C167.007 39.6836 167.007 53.6698 167.007 58.174Z" fill="#455593"/>
<path d="M167.007 58.174C167.007 61.2278 167.273 64.2816 166.438 67.1521C165.318 70.9693 162.395 73.5879 159.478 75.6492C157.675 76.9317 155.719 78.2219 154.751 80.4512C153.783 82.6804 154.467 86.1312 156.523 86.5587C157.322 86.6574 158.128 86.5157 158.87 86.1464C162.852 84.5586 166.697 82.5134 170.355 80.0389C171.854 79.0159 173.373 77.8631 174.297 76.1149C175.098 74.3448 175.532 72.3672 175.562 70.3509C175.862 66.0242 175.756 61.6704 175.246 57.3724C174.656 53.9872 173.558 50.7606 172.006 47.8524C167.007 39.6836 167.007 53.6698 167.007 58.174Z" fill="url(#paint10_linear_60_153)"/>
<path d="M139.502 112.126L138.42 137.114C140.951 136.923 142.103 133.38 142.71 130.456C144.431 122.16 146.155 113.864 147.88 105.568C148.386 103.11 148.905 100.553 148.513 98.0637C148.234 96.3002 146.918 93.2388 145.165 93.0479C143.299 92.8494 142.318 95.7428 141.673 97.4835C139.983 102.056 139.711 107.21 139.502 112.126Z" fill="url(#paint11_linear_60_153)"/>
<path d="M143.267 113.813L144.001 138.816C146.475 138.358 147.393 134.709 147.797 131.731C148.911 123.288 150.027 114.842 151.145 106.393C151.474 103.889 151.777 101.293 151.233 98.8501C150.828 97.1247 149.297 94.216 147.538 94.2084C145.64 94.2084 144.9 97.1858 144.374 98.9951C143.02 103.706 143.122 108.927 143.267 113.813Z" fill="url(#paint12_linear_60_153)"/>
<path d="M142.217 132.037L139.863 132.243C139.619 132.226 139.375 132.269 139.145 132.37C138.916 132.471 138.706 132.628 138.528 132.831C138.336 133.189 138.241 133.611 138.256 134.037C138.193 135.564 138.18 137.091 138.256 138.557C138.243 138.617 138.243 138.68 138.256 138.74C138.292 138.791 138.338 138.831 138.39 138.855C138.442 138.879 138.498 138.886 138.553 138.877C139.454 138.868 140.337 138.584 141.122 138.053C141.456 137.864 141.744 137.575 141.957 137.213C142.151 136.777 142.25 136.288 142.242 135.793C142.305 134.518 142.331 133.235 142.293 131.976L142.217 132.037Z" fill="#455593"/>
<path d="M142.166 137.175C142.161 137.067 142.135 136.962 142.09 136.869C142.031 136.795 141.951 136.747 141.866 136.734C141.781 136.722 141.695 136.745 141.622 136.801C141.482 136.922 141.358 137.068 141.255 137.236C140.848 137.815 140.278 138.19 139.654 138.289C139.019 138.271 138.384 138.317 137.756 138.427C137.303 138.64 136.891 138.965 136.547 139.381L134.497 141.519C134.016 142.015 133.491 142.664 133.605 143.42C133.694 143.751 133.862 144.043 134.086 144.261C134.311 144.479 134.584 144.614 134.871 144.649C135.907 144.785 136.956 144.629 137.933 144.191C138.845 143.896 139.741 143.534 140.616 143.107C141.075 142.909 141.485 142.572 141.805 142.129C142.508 140.992 142.274 138.511 142.166 137.175Z" fill="#3E3E54"/>
<path d="M147.867 132.373L145.494 132.594C145.249 132.578 145.004 132.621 144.774 132.722C144.543 132.823 144.332 132.98 144.153 133.182C143.966 133.543 143.873 133.963 143.887 134.388C143.818 135.915 143.811 137.442 143.855 138.908C143.856 138.973 143.867 139.038 143.887 139.099C143.923 139.148 143.968 139.186 144.019 139.208C144.07 139.231 144.125 139.238 144.178 139.228C145.081 139.224 145.968 138.94 146.753 138.404C147.087 138.219 147.375 137.932 147.589 137.572C147.775 137.132 147.871 136.645 147.867 136.152C147.939 134.869 147.958 133.597 147.924 132.334L147.867 132.373Z" fill="#455593"/>
<path d="M147.817 137.488C147.816 137.378 147.792 137.27 147.747 137.175C147.686 137.099 147.606 137.052 147.519 137.041C147.432 137.03 147.345 137.055 147.272 137.114C147.133 137.233 147.011 137.38 146.912 137.549C146.504 138.125 145.934 138.498 145.311 138.595C144.676 138.583 144.041 138.631 143.413 138.74C142.958 138.95 142.544 139.273 142.198 139.686L140.148 141.824C139.673 142.328 139.148 142.977 139.256 143.725C139.346 144.055 139.513 144.347 139.738 144.565C139.962 144.783 140.234 144.918 140.521 144.954C141.56 145.095 142.611 144.938 143.59 144.496C144.502 144.204 145.398 143.842 146.273 143.412C146.73 143.215 147.138 142.878 147.456 142.435C148.158 141.297 147.924 138.839 147.817 137.488Z" fill="#3E3E54"/>
<path d="M149.879 82.543C148.5 82.627 146.975 82.543 145.925 83.6424C145.82 83.7267 145.734 83.8401 145.674 83.9729C145.613 84.1058 145.58 84.2542 145.577 84.4058C145.615 84.6126 145.703 84.8012 145.83 84.9479L148.924 89.2918C149.072 89.5249 149.249 89.7284 149.449 89.8949C149.856 90.1382 150.319 90.2133 150.765 90.1087C152.466 89.8789 154.061 88.9958 155.315 87.5894C156.58 86.1312 155.992 83.7722 154.638 82.5888C153.283 81.4055 151.486 82.4438 149.879 82.543Z" fill="url(#paint13_linear_60_153)"/>
<path d="M165.774 20.2846C170.114 20.735 173.999 24.0483 176.632 28.232C179.371 32.5836 181.561 38.3628 185.99 39.508C187.983 40.0271 190.065 39.4393 192.09 39.6912C193.978 39.9732 195.746 40.9587 197.148 42.5106C198.549 44.0624 199.515 46.1032 199.91 48.3486C200.385 51.3184 199.803 54.3874 200.056 57.3953C200.556 63.3273 204.263 68.9691 202.878 74.6872C201.777 79.2068 197.183 81.9475 193.519 80.2222C189.622 78.3823 187.932 73.0153 185.294 69.076C184.149 67.3582 182.472 65.7474 180.675 66.152C179.783 66.3581 179.004 67.0376 178.144 67.3124C176.119 67.9461 174.012 66.2283 172.981 64.0296C171.949 61.8309 171.715 59.2352 171.392 56.7464C170.924 53.2346 170.127 49.6312 168.229 46.9362C165.875 43.6382 162.047 41.9968 160.269 38.2101C159.219 35.9656 159.035 33.3165 158.08 31.0338C157.232 29.026 155.606 27.98 156.321 25.6057C157.516 21.6817 162.768 19.9792 165.774 20.2846Z" fill="#3E3E54"/>
<path d="M153.866 25.5218C153.763 26.1635 153.789 26.8255 153.942 27.4524C154.095 28.0794 154.371 28.653 154.745 29.1252C155.505 30.0599 156.355 30.8825 157.276 31.5758C158.194 32.2764 158.953 33.2419 159.484 34.3853C159.539 34.5783 159.63 34.7533 159.75 34.8968C159.812 34.9623 159.892 34.9984 159.975 34.9984C160.057 34.9984 160.137 34.9623 160.199 34.8968C160.26 34.7949 160.292 34.6713 160.288 34.5456C160.414 32.408 160.092 30.278 160.092 28.1404C160.092 26.6898 160.452 24.8423 159.731 23.5597C158.345 21.0786 154.422 23.0711 153.866 25.5218Z" fill="#3E3E54"/>
<path d="M141.888 72.5038C141.806 73.0938 141.913 73.699 142.185 74.1986C142.755 75.0766 144.008 74.8475 144.602 74.0001C145.141 73.0748 145.368 71.9363 145.235 70.8166C145.171 71.8343 145.347 72.8531 145.741 73.7558C146.203 74.5956 147.266 75.046 147.905 74.3895C148.079 74.1819 148.213 73.9306 148.297 73.6535C148.381 73.3764 148.414 73.0803 148.392 72.7863C148.376 71.7603 148.029 70.7825 147.424 70.0608C147.754 70.6391 148.243 71.0582 148.804 71.2441C149.083 71.3394 149.379 71.3394 149.658 71.2441C149.937 71.109 150.169 70.8644 150.319 70.55C150.468 70.2355 150.525 69.8695 150.48 69.5111C150.427 69.1554 150.311 68.8178 150.139 68.5213C149.968 68.2249 149.745 67.9766 149.487 67.7934C148.967 67.4228 148.398 67.1644 147.804 67.0299C148.228 66.6635 148.715 66.4115 149.133 66.0375C149.351 65.8689 149.537 65.6451 149.677 65.3815C149.817 65.1178 149.907 64.8207 149.943 64.5106C149.987 63.457 149.012 62.686 148.139 62.7699C147.277 62.9581 146.488 63.4745 145.887 64.2434C145.325 63.5994 144.65 63.1167 143.913 62.831C143.542 62.6942 143.148 62.6802 142.772 62.7903C142.396 62.9005 142.051 63.1307 141.774 63.457C141.625 63.6915 141.519 63.962 141.464 64.2501C141.409 64.5383 141.406 64.8373 141.455 65.127C141.504 65.4166 141.604 65.6901 141.749 65.9289C141.894 66.1677 142.079 66.3661 142.293 66.5108C141.742 66.5783 141.189 66.6114 140.635 66.61C140.357 66.6167 140.084 66.705 139.84 66.8673C139.597 67.0296 139.39 67.2609 139.237 67.5414C139.118 67.8891 139.104 68.276 139.198 68.6347C139.291 68.9934 139.487 69.3009 139.749 69.5035C140.017 69.6964 140.316 69.8174 140.626 69.8583C140.936 69.8991 141.25 69.8588 141.546 69.7401C141.926 69.6027 142.634 68.8927 142.976 69.2134C142.615 70.412 141.995 71.2059 141.888 72.5038Z" fill="#455593"/>
<path d="M145.305 69.3355C146.489 69.3355 147.45 68.4707 147.45 67.404C147.45 66.3373 146.489 65.4725 145.305 65.4725C144.12 65.4725 143.16 66.3373 143.16 67.404C143.16 68.4707 144.12 69.3355 145.305 69.3355Z" fill="white"/>
</g>
<defs>
<linearGradient id="paint0_linear_60_153" x1="167.919" y1="72.9619" x2="144.204" y2="66.7035" gradientUnits="userSpaceOnUse">
<stop offset="0.01"/>
<stop offset="0.13" stop-opacity="0.69"/>
<stop offset="1" stop-opacity="0"/>
</linearGradient>
<linearGradient id="paint1_linear_60_153" x1="143.08" y1="81.5466" x2="153.218" y2="84.9379" gradientUnits="userSpaceOnUse">
<stop stop-color="#E5C5D5"/>
<stop offset="0.42" stop-color="#EAD4D1"/>
<stop offset="1" stop-color="#F0E9CB"/>
</linearGradient>
<linearGradient id="paint2_linear_60_153" x1="149.443" y1="181.798" x2="232.066" y2="181.798" gradientUnits="userSpaceOnUse">
<stop offset="0.02" stop-color="white" stop-opacity="0"/>
<stop offset="0.32" stop-color="white" stop-opacity="0.39"/>
<stop offset="0.68" stop-color="white" stop-opacity="0.68"/>
<stop offset="1" stop-color="white"/>
</linearGradient>
<linearGradient id="paint3_linear_60_153" x1="190.172" y1="106.103" x2="191.092" y2="91.1647" gradientUnits="userSpaceOnUse">
<stop offset="0.01"/>
<stop offset="0.13" stop-opacity="0.69"/>
<stop offset="1" stop-opacity="0"/>
</linearGradient>
<linearGradient id="paint4_linear_60_153" x1="190.508" y1="247.866" x2="190.508" y2="283.686" gradientUnits="userSpaceOnUse">
<stop offset="0.01"/>
<stop offset="0.13" stop-opacity="0.69"/>
<stop offset="1" stop-opacity="0"/>
</linearGradient>
<linearGradient id="paint5_linear_60_153" x1="194.317" y1="198.868" x2="188.08" y2="224.607" gradientUnits="userSpaceOnUse">
<stop offset="0.02" stop-color="white" stop-opacity="0"/>
<stop offset="0.32" stop-color="white" stop-opacity="0.39"/>
<stop offset="0.68" stop-color="white" stop-opacity="0.68"/>
<stop offset="1" stop-color="white"/>
</linearGradient>
<linearGradient id="paint6_linear_60_153" x1="194.81" y1="201.685" x2="181.043" y2="258.497" gradientUnits="userSpaceOnUse">
<stop offset="0.01"/>
<stop offset="0.13" stop-opacity="0.69"/>
<stop offset="1" stop-opacity="0"/>
</linearGradient>
<linearGradient id="paint7_linear_60_153" x1="190.375" y1="151.566" x2="189.298" y2="124.232" gradientUnits="userSpaceOnUse">
<stop offset="0.01"/>
<stop offset="0.13" stop-opacity="0.69"/>
<stop offset="1" stop-opacity="0"/>
</linearGradient>
<linearGradient id="paint8_linear_60_153" x1="178.353" y1="64.9152" x2="150.386" y2="65.7861" gradientUnits="userSpaceOnUse">
<stop offset="0.01"/>
<stop offset="0.13" stop-opacity="0.69"/>
<stop offset="1" stop-opacity="0"/>
</linearGradient>
<linearGradient id="paint9_linear_60_153" x1="154.524" y1="36.4008" x2="167.742" y2="36.4008" gradientUnits="userSpaceOnUse">
<stop stop-color="#E5C5D5"/>
<stop offset="0.42" stop-color="#EAD4D1"/>
<stop offset="1" stop-color="#F0E9CB"/>
</linearGradient>
<linearGradient id="paint10_linear_60_153" x1="187.54" y1="67.4804" x2="150.235" y2="65.9163" gradientUnits="userSpaceOnUse">
<stop offset="0.01"/>
<stop offset="0.13" stop-opacity="0.69"/>
<stop offset="1" stop-opacity="0"/>
</linearGradient>
<linearGradient id="paint11_linear_60_153" x1="139.217" y1="114.814" x2="147.55" y2="115.42" gradientUnits="userSpaceOnUse">
<stop stop-color="#E5C5D5"/>
<stop offset="0.42" stop-color="#EAD4D1"/>
<stop offset="1" stop-color="#F0E9CB"/>
</linearGradient>
<linearGradient id="paint12_linear_60_153" x1="143.185" y1="116.516" x2="151.537" y2="116.516" gradientUnits="userSpaceOnUse">
<stop stop-color="#E5C5D5"/>
<stop offset="0.42" stop-color="#EAD4D1"/>
<stop offset="1" stop-color="#F0E9CB"/>
</linearGradient>
<linearGradient id="paint13_linear_60_153" x1="145.57" y1="86.1006" x2="156.03" y2="86.1006" gradientUnits="userSpaceOnUse">
<stop stop-color="#E5C5D5"/>
<stop offset="0.42" stop-color="#EAD4D1"/>
<stop offset="1" stop-color="#F0E9CB"/>
</linearGradient>
<clipPath id="clip0_60_153">
<rect width="320" height="291" fill="white"/>
</clipPath>
</defs>
</svg>
