<svg width="31" height="32" viewBox="0 0 31 32" fill="none" xmlns="http://www.w3.org/2000/svg">
<path d="M28.1654 13.9145H27.125V13.8609H15.5V19.0276H22.7999C21.7349 22.0352 18.8732 24.1943 15.5 24.1943C11.2201 24.1943 7.75001 20.7242 7.75001 16.4443C7.75001 12.1643 11.2201 8.69425 15.5 8.69425C17.4756 8.69425 19.273 9.43955 20.6415 10.6569L24.295 7.00346C21.9881 4.85348 18.9023 3.52759 15.5 3.52759C8.36678 3.52759 2.58334 9.31103 2.58334 16.4443C2.58334 23.5775 8.36678 29.3609 15.5 29.3609C22.6332 29.3609 28.4167 23.5775 28.4167 16.4443C28.4167 15.5782 28.3276 14.7328 28.1654 13.9145Z" fill="#FFC107"/>
<path d="M4.07263 10.4322L8.3164 13.5445C9.46469 10.7015 12.2457 8.69425 15.5 8.69425C17.4756 8.69425 19.273 9.43955 20.6415 10.6569L24.295 7.00346C21.9881 4.85348 18.9023 3.52759 15.5 3.52759C10.5387 3.52759 6.23617 6.32857 4.07263 10.4322Z" fill="#FF3D00"/>
<path d="M15.5 29.361C18.8364 29.361 21.8679 28.0841 24.16 26.0078L20.1623 22.6249C18.8654 23.6072 17.2534 24.1943 15.5 24.1943C12.1404 24.1943 9.28774 22.0521 8.21307 19.0625L4.00095 22.3078C6.13865 26.4909 10.4799 29.361 15.5 29.361Z" fill="#4CAF50"/>
<path d="M28.1654 13.9147H27.125V13.8611H15.5V19.0278H22.7999C22.2884 20.4725 21.359 21.7183 20.1603 22.6257L20.1623 22.6244L24.16 26.0073C23.8771 26.2643 28.4167 22.9028 28.4167 16.4444C28.4167 15.5784 28.3275 14.733 28.1654 13.9147Z" fill="#1976D2"/>
</svg>
