<svg width="86" height="98" viewBox="0 0 86 98" fill="none" xmlns="http://www.w3.org/2000/svg">
<g clip-path="url(#clip0_110_1006)">
<path fill-rule="evenodd" clip-rule="evenodd" d="M49.2058 48.4529L49.2078 48.448C47.9562 48.4173 46.7036 48.3339 45.4485 48.2502C44.5973 48.1935 43.745 48.1367 42.8911 48.0963C42.8892 48.1439 42.8876 48.1916 42.8861 48.2393L42.886 48.2406C42.8684 48.7738 42.8508 49.305 42.4744 49.7041C42.4167 49.9688 42.3724 50.2394 42.3281 50.51C42.2438 51.0252 42.1595 51.5402 41.9833 52.013C41.6988 52.7466 41.4379 53.4976 41.185 54.2536C42.1175 54.2929 43.0375 54.3682 43.9224 54.549C43.9579 54.5598 44.0057 54.5302 44.06 54.4967C44.1205 54.4592 44.189 54.4168 44.2573 54.4203C44.4448 54.4308 44.7794 54.4668 45.1923 54.5112C45.6592 54.5615 46.2261 54.6225 46.7926 54.6696C46.8687 54.461 46.9434 54.2518 47.0164 54.0418C47.6649 52.151 48.4353 50.302 49.2058 48.4529ZM57.6967 56.1268C57.8629 55.6952 58.0264 55.2606 58.19 54.8256C58.5927 53.755 58.9963 52.6821 59.4437 51.6466C59.6541 51.1449 59.7658 50.5969 59.8773 50.0497C59.9241 49.8204 59.9707 49.5912 60.0247 49.3657C60.3309 49.0682 60.4187 48.6813 60.4581 48.2761C60.7337 48.2217 61.0093 48.1591 61.2848 48.0869C63.039 47.6339 64.7863 47.9993 66.5303 48.364C67.1445 48.4925 67.7582 48.6208 68.3719 48.7133C69.3455 48.8616 76.9025 47.7848 76.9641 44.078C77.0082 40.9572 70.9912 39.7226 69.1292 39.3406C68.8661 39.2866 68.686 39.2496 68.6177 39.2268C67.0946 38.7275 65.574 38.436 64.056 38.2691C65.5772 34.6682 67.1489 31.0941 68.7329 27.5237C68.9139 27.1031 69.1326 26.6238 69.37 26.1018L69.3704 26.1006C71.1172 22.2651 73.9047 16.143 70.6858 14.3207C66.9085 12.2135 61.5799 20.481 61.6194 21.8613C61.6261 22.1319 61.3941 22.3028 61.1762 22.4632L61.1441 22.4869C61.1391 22.4907 61.134 22.4944 61.1289 22.4982C61.1221 22.5033 61.1153 22.5083 61.1085 22.5134C60.6011 22.9 60.1455 23.7 59.8306 24.2528C59.8002 24.3061 59.7711 24.3572 59.7434 24.4054C59.5433 24.7356 59.5053 25.1657 59.4681 25.587C59.4317 26.0002 59.396 26.4049 59.2089 26.6988C58.6115 27.6532 57.9382 28.5749 57.2642 29.4977C56.1684 30.9979 55.0704 32.5011 54.2926 34.1522C53.7225 35.366 53.2746 36.6373 52.8705 37.9283C51.4595 37.7076 49.9787 37.6802 48.4969 37.6527C47.8189 37.6402 47.1408 37.6276 46.4691 37.5965C47.7955 34.1888 49.18 30.808 50.5746 27.4303C50.7623 26.9566 50.9948 26.4101 51.2485 25.8137C52.9172 21.8913 55.5044 15.8103 52.31 14.0785C50.4001 13.0679 48.1422 14.6549 46.3532 16.698C44.5942 18.7502 43.3134 21.2283 43.3354 21.9109C43.3422 22.1832 43.1198 22.3583 42.8995 22.5317C42.8898 22.5393 42.8799 22.5471 42.8702 22.5548C42.8584 22.5641 42.8467 22.5734 42.835 22.5827C42.3701 22.9605 41.9612 23.702 41.6529 24.2609C41.5993 24.3583 41.5485 24.4503 41.5012 24.5337C41.3056 24.8751 41.2784 25.3145 41.252 25.7427C41.2263 26.1594 41.2012 26.5654 41.0222 26.8605C40.4542 27.822 39.818 28.7536 39.1812 29.686C38.1062 31.2601 37.0296 32.8366 36.2763 34.5637C35.8614 35.5313 35.5206 36.5307 35.2175 37.5457C35.1392 37.536 35.0608 37.5265 34.9824 37.5172C31.3618 37.1063 27.7767 36.5249 24.2756 35.7219C23.7835 35.6141 23.2015 35.4654 22.5654 35.3029C21.2107 34.9569 19.6103 34.5481 18.1093 34.3375C15.8943 34.0583 13.8305 34.2536 12.9139 36.1833C11.9823 38.1085 13.3972 40.2046 15.3334 41.6683C17.2454 43.1576 19.6172 43.9463 20.2157 43.8154C20.4721 43.7647 20.6638 43.9777 20.8443 44.1783L20.8567 44.1921C21.2389 44.5723 21.9423 44.8166 22.4725 45.0008C22.5719 45.0353 22.6652 45.0677 22.7492 45.0984C23.0789 45.216 23.4748 45.1595 23.8607 45.1044C24.2207 45.0531 24.5719 45.003 24.8527 45.0965C25.6774 45.403 26.4953 45.7683 27.3158 46.1348C28.894 46.8396 30.4821 47.549 32.1481 47.8526C31.9909 48.2819 31.8324 48.7106 31.6739 49.1393L31.6737 49.1397C31.0022 50.9554 30.3311 52.7701 29.7672 54.6258C29.5347 54.6088 29.3025 54.5903 29.0705 54.5719C28.5746 54.5326 28.0794 54.4931 27.5842 54.4666L17.5844 53.9092C17.286 53.8945 16.9494 53.8714 16.5849 53.8466C13.4097 53.6312 8.12026 53.2719 7.56706 57.022C6.93313 61.313 14.1797 63.1417 15.1612 62.6164C15.3539 62.5251 15.528 62.6744 15.6958 62.819C15.712 62.8329 15.728 62.8466 15.7442 62.8599C16.1372 63.1903 16.8223 63.3217 17.2926 63.4122C17.3387 63.4216 17.3829 63.4298 17.4244 63.4383C17.7098 63.4923 18.024 63.3722 18.3311 63.2551C18.6424 63.1362 18.9466 63.0198 19.206 63.091C20.0431 63.3079 20.8742 63.6082 21.7059 63.9092C23.0378 64.3903 24.3711 64.8729 25.734 65.0138C26.0255 65.0451 26.3182 65.0647 26.6113 65.0757C26.5121 65.6581 26.4365 66.2476 26.3903 66.8461C26.2328 68.9292 25.3355 70.7957 24.4372 72.664C24.0986 73.3684 23.7599 74.0727 23.4605 74.7896C23.2153 75.3248 22.7909 77.8498 22.8683 80.3457C22.9605 82.8467 23.5739 85.3089 25.3708 85.7739C27.0926 86.2159 28.7847 84.2754 30.08 82.181C31.0385 80.6729 31.7863 79.0666 32.1976 78.1831C32.3552 77.8449 32.4634 77.6123 32.5152 77.5319C34.7192 73.9132 35.8915 70.0125 37.0725 66.0826L37.1235 65.9131C37.2139 65.5857 37.3261 65.2274 37.4501 64.8574C37.4865 64.8597 37.523 64.8619 37.5594 64.8646C38.9647 64.9567 40.3683 65.0494 41.7774 65.0392C42.2933 65.0354 42.8086 65.0507 43.3237 65.0744C43.2973 65.2451 43.2733 65.416 43.2517 65.5882C42.999 67.6323 42.0095 69.4169 41.0155 71.2095C40.642 71.8829 40.2679 72.5577 39.9319 73.2482C39.4009 74.2897 37.6863 83.0979 41.2355 84.2285C44.0936 85.1417 47.288 79.2724 48.423 77.1872C48.6199 76.8254 48.7547 76.5779 48.8153 76.4986C51.2339 72.9824 52.6289 69.1052 53.9939 65.2183C54.0331 65.1011 54.0752 64.9801 54.1199 64.8558C54.6155 64.954 55.1108 65.0793 55.6067 65.2043C56.154 65.3428 56.7022 65.4811 57.2517 65.5837C58.1318 65.7693 64.8741 64.7247 64.9102 60.9936C64.9501 57.9053 59.7642 56.6367 58.1044 56.2306C57.9221 56.1861 57.7823 56.1518 57.6967 56.1268Z" fill="#FD5C63"/>
</g>
<defs>
<clipPath id="clip0_110_1006">
<rect width="64" height="82" fill="white" transform="translate(23.9012) rotate(16.9465)"/>
</clipPath>
</defs>
</svg>
