<svg width="41" height="41" viewBox="0 0 41 41" fill="none" xmlns="http://www.w3.org/2000/svg">
<path d="M18.7917 17.9375H20C20.2761 17.9375 20.5 18.1614 20.5 18.4375V25.9792C20.5 26.2553 20.7238 26.4792 21 26.4792H22.2083M20.5 14.5209H20.5171" stroke="#E94F55" stroke-linecap="round" stroke-linejoin="round"/>
<path d="M22.8732 33.9591C24.6406 33.6474 26.3294 32.9907 27.8431 32.0264C29.3567 31.0621 30.6657 29.8091 31.6951 28.3389C32.7245 26.8688 33.4543 25.2102 33.8427 23.458C34.2312 21.7059 34.2707 19.8943 33.959 18.1268C33.6474 16.3594 32.9906 14.6706 32.0263 13.1569C31.062 11.6433 29.809 10.3344 28.3389 9.30496C26.8687 8.27555 25.2102 7.54578 23.458 7.15733C21.7058 6.76888 19.8943 6.72935 18.1268 7.041C16.3593 7.35265 14.6706 8.00938 13.1569 8.97369C11.6432 9.938 10.3343 11.191 9.30491 12.6612C8.2755 14.1313 7.54573 15.7898 7.15728 17.542C6.76883 19.2942 6.7293 21.1058 7.04095 22.8732C7.3526 24.6407 8.00933 26.3295 8.97364 27.8431C9.93795 29.3568 11.191 30.6657 12.6611 31.6951C14.1313 32.7245 15.7898 33.4543 17.542 33.8428C19.2942 34.2312 21.1057 34.2707 22.8732 33.9591L22.8732 33.9591Z" stroke="#E94F55"/>
</svg>
