<svg width="19" height="20" viewBox="0 0 19 20" fill="none" xmlns="http://www.w3.org/2000/svg">
<path d="M8.46402 17.163C7.3028 17.163 6.21103 16.9423 5.18885 16.5011C4.1666 16.0519 3.26707 15.4333 2.49014 14.6453C1.71327 13.8573 1.10404 12.9471 0.662432 11.9148C0.22083 10.8746 0 9.7635 0 8.58151C0 7.39946 0.22083 6.29233 0.662432 5.25999C1.10404 4.21983 1.71327 3.30573 2.49014 2.51771C3.26707 1.72969 4.1666 1.11504 5.18885 0.673757C6.21103 0.224585 7.3028 0 8.46402 0C9.63347 0 10.7293 0.224585 11.7515 0.673757C12.7738 1.11504 13.6733 1.72969 14.4502 2.51771C15.2271 3.30573 15.8322 4.21983 16.2657 5.25999C16.7073 6.29233 16.9281 7.39946 16.9281 8.58151C16.9281 9.7635 16.7073 10.8746 16.2657 11.9148C15.8322 12.9471 15.2271 13.8573 14.4502 14.6453C13.6733 15.4333 12.7738 16.0519 11.7515 16.5011C10.7293 16.9423 9.63347 17.163 8.46402 17.163ZM8.46402 15.5082C9.40448 15.5082 10.2795 15.3269 11.0891 14.9644C11.9069 14.594 12.6225 14.0897 13.2358 13.4514C13.8573 12.8132 14.3398 12.0763 14.6833 11.2411C15.0349 10.4057 15.2107 9.51925 15.2107 8.58151C15.2107 7.63585 15.0349 6.74541 14.6833 5.91014C14.3316 5.06694 13.845 4.33015 13.2235 3.69974C12.6102 3.06144 11.8946 2.56105 11.0769 2.19856C10.2672 1.83608 9.39631 1.65483 8.46402 1.65483C7.52362 1.65483 6.64447 1.84002 5.82668 2.21038C5.0171 2.57287 4.30153 3.07326 3.68002 3.71156C3.06668 4.34985 2.58421 5.08664 2.23256 5.92196C1.88907 6.75724 1.71738 7.64377 1.71738 8.58151C1.71738 9.53498 1.89318 10.4294 2.24483 11.2647C2.59648 12.1 3.07895 12.8368 3.69229 13.4751C4.3138 14.1133 5.02937 14.6138 5.83895 14.9762C6.65675 15.3309 7.53179 15.5082 8.46402 15.5082Z" fill="#FD5C63"/>
<path d="M17.3075 18.9821L13.7415 15.4161" stroke="#FD5C63" stroke-width="1.5" stroke-linecap="round"/>
<circle cx="8.44902" cy="6.29661" r="2.16667" fill="#FD5C63"/>
<path d="M4.79809 11.5343C5.14309 9.89542 6.77425 9.00494 8.44902 9.00494C10.1238 9.00494 11.7549 9.89542 12.0999 11.5343C12.1384 11.7168 12.1707 11.9037 12.1946 12.0931C12.2435 12.4796 11.9248 12.7966 11.5352 12.7966H5.3628C4.97319 12.7966 4.65458 12.4796 4.70343 12.0931C4.72736 11.9037 4.75967 11.7168 4.79809 11.5343Z" fill="#FD5C63"/>
</svg>
