<svg width="63" height="36" viewBox="0 0 63 36" fill="none" xmlns="http://www.w3.org/2000/svg">
<path d="M14.0209 16.8924H10.1201L5.29923 10.4031L4.4651 11.3605V16.8924H1.47202V0.344055H4.4651V6.88064L10.1446 0.344055H14.0577L7.24961 8.14541L14.0209 16.8924ZM24.824 0.344055H27.8171V16.8924H24.824V9.4693H17.7093V16.8924H14.7162V0.344055H17.7093V6.58513H24.824V0.344055ZM47.1942 16.8924V0.344055H50.4327L57.6823 11.6797V0.344055H60.6756V16.8924H57.4494L50.1873 5.55676V16.8924H47.1942ZM11.5798 17.2364H14.5728V33.7848H11.5798V26.3617H4.4651V33.7848H1.47202V17.2364H4.4651V23.4775H11.5798V17.2364ZM22.0383 17.2364H25.4853L31.729 33.7848H28.5519L27.4479 30.8534H20.0879L18.9839 33.7848H15.8068L22.0383 17.2364ZM21.1796 27.9692H26.3439L23.7557 21.149L21.1796 27.9692ZM32.9285 33.7848V17.2364H35.9215V33.7848H32.9285Z" fill="#394577"/>
<path d="M37.515 17.1997C36.3538 17.1997 35.262 16.9791 34.2398 16.5378C33.2176 16.0886 32.3181 15.47 31.5411 14.682C30.7643 13.894 30.155 12.9838 29.7134 11.9515C29.2718 10.9113 29.051 9.80024 29.051 8.61825C29.051 7.43621 29.2718 6.32907 29.7134 5.29673C30.155 4.25657 30.7643 3.34247 31.5411 2.55446C32.3181 1.76644 33.2176 1.15179 34.2398 0.7105C35.262 0.261328 36.3538 0.0367432 37.515 0.0367432C38.6845 0.0367432 39.7803 0.261328 40.8025 0.7105C41.8248 1.15179 42.7243 1.76644 43.5012 2.55446C44.2781 3.34247 44.8832 4.25657 45.3167 5.29673C45.7583 6.32907 45.9791 7.43621 45.9791 8.61825C45.9791 9.80024 45.7583 10.9113 45.3167 11.9515C44.8832 12.9838 44.2781 13.894 43.5012 14.682C42.7243 15.47 41.8248 16.0886 40.8025 16.5378C39.7803 16.9791 38.6845 17.1997 37.515 17.1997ZM37.515 15.5449C38.4555 15.5449 39.3305 15.3636 40.1401 15.0011C40.9579 14.6308 41.6735 14.1265 42.2868 13.4882C42.9083 12.8499 43.3908 12.1131 43.7343 11.2778C44.0859 10.4425 44.2617 9.55599 44.2617 8.61825C44.2617 7.67259 44.0859 6.78215 43.7343 5.94688C43.3826 5.10369 42.896 4.36689 42.2745 3.73648C41.6612 3.09819 40.9456 2.5978 40.1279 2.23531C39.3182 1.87282 38.4473 1.69158 37.515 1.69158C36.5746 1.69158 35.6955 1.87676 34.8777 2.24713C34.0681 2.60962 33.3525 3.11 32.731 3.7483C32.1177 4.38659 31.6352 5.12339 31.2836 5.9587C30.9401 6.79398 30.7684 7.68051 30.7684 8.61825C30.7684 9.57172 30.9442 10.4661 31.2958 11.3014C31.6475 12.1367 32.1299 12.8735 32.7433 13.5118C33.3648 14.1501 34.0804 14.6505 34.8899 15.013C35.7077 15.3676 36.5828 15.5449 37.515 15.5449Z" fill="#FD5C63"/>
<path d="M46.3585 19.0189L42.7924 15.4528" stroke="#FD5C63" stroke-width="1.5" stroke-linecap="round"/>
<circle cx="37.5" cy="6.33335" r="2.16667" fill="#FD5C63"/>
<path d="M33.8491 11.571C34.1941 9.93217 35.8252 9.04169 37.5 9.04169C39.1748 9.04169 40.8059 9.93217 41.1509 11.571C41.1894 11.7535 41.2217 11.9405 41.2456 12.1298C41.2945 12.5164 40.9758 12.8334 40.5862 12.8334H34.4138C34.0242 12.8334 33.7056 12.5164 33.7544 12.1298C33.7784 11.9405 33.8107 11.7535 33.8491 11.571Z" fill="#FD5C63"/>
</svg>
