<svg width="44" height="86" viewBox="0 0 44 86" fill="none" xmlns="http://www.w3.org/2000/svg">
<g clip-path="url(#clip0_110_986)">
<path fill-rule="evenodd" clip-rule="evenodd" d="M20.9955 41.5626C22.2909 39.5582 25.2368 36.7354 26.1361 35.9517C26.2167 35.8764 26.2811 35.7949 26.3399 35.7204C26.4101 35.6315 26.4725 35.5524 26.5455 35.5054C26.8391 35.2504 27.1366 34.9927 27.437 34.7326C30.4329 32.138 33.7344 29.2788 36.564 26.1387C36.9408 25.7442 37.2592 25.3046 37.5751 24.8686C37.6147 24.8137 37.6544 24.759 37.6941 24.7045L37.7304 24.6541C38.0725 24.18 38.4118 23.7098 38.6947 23.2048C39.0811 22.7505 39.3898 22.2673 39.6428 21.7583C39.7215 21.5684 39.7974 21.3782 39.8731 21.1885C40.0078 20.8507 40.1419 20.5146 40.2903 20.1852C40.4525 19.8712 40.5585 19.5378 40.6647 19.2046C40.7146 19.0475 40.7646 18.8906 40.8204 18.7357C40.8746 18.5612 40.9342 18.3897 40.9935 18.2183C41.1017 17.9058 41.21 17.5936 41.2861 17.2647C41.5353 16.2591 41.6851 15.2152 41.6896 14.137C41.6794 13.0564 41.5324 11.9372 41.121 10.8217C40.7318 9.70972 40.0344 8.5945 39.15 7.61442C37.6864 6.00912 35.7165 4.74976 33.5806 3.87306C31.4457 2.99084 29.1198 2.45893 26.7769 2.32184C22.0287 2.06052 17.747 3.42314 14.4849 5.43508C14.2671 5.56966 14.0394 5.70001 13.8105 5.831C12.6626 6.48805 11.4862 7.1614 11.393 8.46766L11.3807 8.54523C11.3159 8.85881 11.5502 9.03643 11.7841 9.2138C11.8948 9.2977 12.0053 9.38154 12.0842 9.47969C12.6389 10.1635 13.145 10.4876 13.611 10.4931C14.0779 10.493 14.4966 10.1786 15.0368 9.57108C15.2668 9.30644 15.636 9.11486 15.9886 8.93204C16.1726 8.83168 16.382 8.71484 16.6055 8.59011C17.3529 8.17301 18.2587 7.66752 18.9049 7.3936C19.1878 7.26479 19.4732 7.12079 19.7607 6.97571C20.4707 6.6174 21.1939 6.25246 21.9266 6.09328C23.0036 5.85445 24.1226 5.73018 25.2372 5.7301C26.3288 5.7321 27.4232 5.85947 28.4846 6.10087C30.6155 6.57927 32.5883 7.48701 34.05 8.62637C34.91 9.28459 35.5771 10.0202 36.0291 10.8298C36.4942 11.6528 36.7625 12.5754 36.8343 13.5521C36.9933 15.5023 36.3886 17.6158 35.3458 19.5466C34.2361 21.6144 32.6225 23.5345 30.7956 25.3757C29.47 26.7113 28.0279 28.0077 26.5664 29.3215C26.0137 29.8184 25.4582 30.3178 24.9051 30.8227C24.7032 31.007 24.5006 31.1915 24.2976 31.3762C22.245 33.245 20.1528 35.1497 18.3427 37.2823C16.3454 39.6303 14.751 42.2406 14.0767 45.2232C13.882 46.2658 13.8008 47.4001 14.0658 48.5833C14.3261 49.7488 14.9423 50.9023 15.7636 51.9009C17.4339 53.9136 19.71 55.3803 21.9584 56.5927C23.8559 57.5965 25.546 57.4318 26.3328 56.3124C27.0021 55.3558 25.7109 54.638 24.768 54.1137C24.6422 54.0437 24.5226 53.9772 24.4146 53.9141C22.9303 53.0608 21.5485 52.1782 20.5074 51.2358C19.4434 50.2956 18.8041 49.3371 18.5866 48.3772C18.3583 47.4382 18.5874 46.3216 19.0716 45.1147L19.921 43.3124C20.062 43.0855 20.1986 42.8581 20.335 42.6309C20.5501 42.2727 20.7647 41.9154 20.9955 41.5626ZM22.1517 76.8732C22.2905 76.9007 22.4406 76.9527 22.504 76.9799C22.5214 76.9861 22.5478 76.9724 22.5689 76.9614C22.5821 76.9543 22.5935 76.9485 22.5991 76.9494L22.6262 76.9667C22.8461 77.1062 23.0992 77.2671 23.268 77.4354C23.426 77.5797 23.566 77.7892 23.591 78.06C23.5982 78.1037 23.614 78.1486 23.6308 78.1965C23.641 78.2255 23.6515 78.2555 23.6606 78.2868C23.7008 78.367 23.7316 78.457 23.7407 78.5437C23.6328 78.6235 23.6642 78.7365 23.6965 78.854C23.7155 78.9225 23.7347 78.9925 23.7272 79.0583C23.6837 79.3808 23.4814 79.6612 23.2259 79.848C22.9704 80.0348 22.6768 80.1303 22.3744 80.1848C21.8918 80.2846 21.203 80.1645 20.565 79.8651C20.1413 79.6677 19.7645 79.3994 19.47 79.106C19.5453 79.0122 19.6189 78.9195 19.6915 78.8284C20.0146 78.4221 20.3127 78.0473 20.6064 77.7421C21.0449 77.2549 21.4538 77.0015 21.7173 76.9068C21.8289 76.8675 22.0425 76.8502 22.1517 76.8732ZM15.2525 77.6126C15.1739 77.6153 15.1042 77.6229 15.043 77.6361C14.6931 77.7058 14.5923 77.9624 14.7897 78.3342C14.8709 78.4736 14.8512 78.622 14.8314 78.7706C14.8281 78.7953 14.8248 78.82 14.822 78.8448C14.8134 79.0421 14.8769 79.3078 14.9642 79.5657C15.0762 79.8105 15.1946 80.0621 15.3097 80.2392C15.4753 80.5097 15.777 80.7287 16.0571 80.932C16.2328 81.0594 16.3999 81.1808 16.5197 81.3048C17.1918 82.0071 18.0004 82.6572 19.0116 83.169C20.0088 83.6729 21.2464 84.0386 22.5564 84.041C24.0764 84.0481 25.5484 83.548 26.4868 82.8046C27.4469 82.0646 28.009 81.1766 28.3495 80.2594C28.685 79.2789 28.7631 78.2122 28.3869 77.1136C28.0023 76.0194 27.06 74.928 25.878 74.2587C25.2156 73.8759 24.4902 73.5568 23.6887 73.3394C22.8944 73.1232 22.0011 73.0105 21.1549 73.0757C20.3277 73.1155 19.5159 73.345 18.8559 73.6611C18.1879 73.9814 17.6986 74.4097 17.3498 74.8542C17.0905 75.1827 16.8334 75.5136 16.5758 75.8451C16.3938 76.0791 16.2116 76.3137 16.0281 76.548C15.7505 76.9017 15.4858 77.2551 15.2525 77.6126Z" fill="#E94F55"/>
</g>
<defs>
<clipPath id="clip0_110_986">
<rect width="31.0946" height="81.5733" fill="white" transform="translate(12.7217) rotate(8.97218)"/>
</clipPath>
</defs>
</svg>
