<svg width="38" height="38" viewBox="0 0 38 38" fill="none" xmlns="http://www.w3.org/2000/svg">
<g clip-path="url(#clip0_156_718)">
<path d="M9.24984 16.4166C7.554 16.4166 6.1665 17.8041 6.1665 19.5C6.1665 21.1958 7.554 22.5833 9.24984 22.5833C10.9457 22.5833 12.3332 21.1958 12.3332 19.5C12.3332 17.8041 10.9457 16.4166 9.24984 16.4166ZM27.7498 16.4166C26.054 16.4166 24.6665 17.8041 24.6665 19.5C24.6665 21.1958 26.054 22.5833 27.7498 22.5833C29.4457 22.5833 30.8332 21.1958 30.8332 19.5C30.8332 17.8041 29.4457 16.4166 27.7498 16.4166ZM18.4998 16.4166C16.804 16.4166 15.4165 17.8041 15.4165 19.5C15.4165 21.1958 16.804 22.5833 18.4998 22.5833C20.1957 22.5833 21.5832 21.1958 21.5832 19.5C21.5832 17.8041 20.1957 16.4166 18.4998 16.4166Z" fill="#4F4F4F"/>
</g>
<defs>
<clipPath id="clip0_156_718">
<rect width="37" height="37" fill="white" transform="translate(0 1)"/>
</clipPath>
</defs>
</svg>
