<svg width="37" height="36" viewBox="0 0 37 36" fill="none" xmlns="http://www.w3.org/2000/svg">
<path d="M13.875 19.125L17.3437 22.5L23.125 14.625M32.375 18C32.375 19.7728 32.0161 21.5283 31.3188 23.1662C30.6215 24.8041 29.5995 26.2923 28.3111 27.5459C27.0227 28.7995 25.4931 29.7939 23.8097 30.4724C22.1263 31.1508 20.3221 31.5 18.5 31.5C16.6779 31.5 14.8737 31.1508 13.1903 30.4724C11.5069 29.7939 9.97731 28.7995 8.68889 27.5459C7.40048 26.2923 6.37846 24.8041 5.68117 23.1662C4.98389 21.5283 4.625 19.7728 4.625 18C4.625 14.4196 6.08683 10.9858 8.68889 8.45406C11.291 5.92232 14.8201 4.5 18.5 4.5C22.1799 4.5 25.709 5.92232 28.3111 8.45406C30.9132 10.9858 32.375 14.4196 32.375 18Z" stroke="#0A7923" stroke-width="1.5" stroke-linecap="round" stroke-linejoin="round"/>
</svg>
