<svg width="1437" height="246" viewBox="0 0 1437 246" fill="none" xmlns="http://www.w3.org/2000/svg">
<path d="M0 37.29L34.4 44.07C68.8 50.85 137.6 64.41 206.08 68.026C274.72 71.529 342.88 65.201 411.52 70.851C480 76.501 548.8 94.129 617.28 108.706C685.92 123.17 754.08 134.47 822.72 128.029C891.2 121.701 960 97.519 1028.48 80.456C1097.12 63.28 1165.28 53.11 1233.92 40.906C1302.4 28.589 1371.2 14.351 1405.6 7.11899L1440 0V245.21H1405.6C1371.2 245.21 1302.4 245.21 1233.92 245.21C1165.28 245.21 1097.12 245.21 1028.48 245.21C960 245.21 891.2 245.21 822.72 245.21C754.08 245.21 685.92 245.21 617.28 245.21C548.8 245.21 480 245.21 411.52 245.21C342.88 245.21 274.72 245.21 206.08 245.21C137.6 245.21 68.8 245.21 34.4 245.21H0V37.29Z" fill="#455593"/>
</svg>
